<svg width="154" height="50" viewBox="0 0 154 50" fill="none" xmlns="http://www.w3.org/2000/svg">
<rect x="10.2715" y="5.38055" width="31.1358" height="4.14724" fill="white"/>
<rect x="18.2963" y="17.1843" width="15.4074" height="4.14724" fill="white"/>
<rect x="18.2963" y="28.6687" width="15.4074" height="4.14724" fill="white"/>
<rect x="18.2963" y="32.8157" width="15.3129" height="4.17284" transform="rotate(-90 18.2963 32.8157)" fill="white"/>
<rect x="29.5309" y="32.8157" width="15.3129" height="4.17284" transform="rotate(-90 29.5309 32.8157)" fill="white"/>
<rect x="33.3828" y="-1" width="4.17284" height="6.69939" fill="white"/>
<rect x="14.1234" y="-1" width="4.17284" height="6.69939" fill="white"/>
<rect x="23.7531" y="-1" width="4.17284" height="6.69939" fill="white"/>
<rect x="6.41986" y="44.6194" width="39.2393" height="4.17284" transform="rotate(-90 6.41986 44.6194)" fill="white"/>
<rect y="17.503" width="4.14724" height="6.74074" transform="rotate(-90 0 17.503)" fill="white"/>
<rect y="36.644" width="4.14724" height="6.74074" transform="rotate(-90 0 36.644)" fill="white"/>
<rect y="27.0738" width="4.14724" height="6.74074" transform="rotate(-90 0 27.0738)" fill="white"/>
<rect width="39.2393" height="4.17284" transform="matrix(0 -1 -1 0 45.5801 44.6194)" fill="white"/>
<rect width="4.14724" height="6.74074" transform="matrix(0 -1 -1 0 52 17.503)" fill="white"/>
<rect width="4.14724" height="6.74074" transform="matrix(0 -1 -1 0 52 36.644)" fill="white"/>
<rect width="4.14724" height="6.74074" transform="matrix(0 -1 -1 0 52 27.0738)" fill="white"/>
<rect x="41.4074" y="44.6194" width="31.1358" height="4.14724" transform="rotate(-180 41.4074 44.6194)" fill="white"/>
<rect x="18.2963" y="51" width="4.17284" height="6.69939" transform="rotate(-180 18.2963 51)" fill="white"/>
<rect x="37.5555" y="51" width="4.17284" height="6.69939" transform="rotate(-180 37.5555 51)" fill="white"/>
<rect x="27.9258" y="51" width="4.17284" height="6.69939" transform="rotate(-180 27.9258 51)" fill="white"/>
<path d="M62.3025 13.688H66.9425V21.944L73.8865 13.688H79.4225L70.6545 23.8L78.9745 35H73.3425L66.9425 26.392V35H62.3025V13.688ZM83.75 11.64H88.902V15.8H83.75V11.64ZM81.254 31.128H84.326V22.392H81.254V18.52H88.838V31.128H91.59V35H81.254V31.128ZM101.884 35.48C100.22 35.48 98.7475 35.1173 97.4675 34.392C96.2088 33.6667 95.2275 32.6533 94.5235 31.352C93.8195 30.0293 93.4675 28.504 93.4675 26.776C93.4675 25.048 93.8088 23.5333 94.4915 22.232C95.1955 20.9093 96.1768 19.8853 97.4355 19.16C98.7155 18.4347 100.188 18.072 101.852 18.072C103.516 18.072 104.977 18.4347 106.236 19.16C107.516 19.864 108.497 20.8667 109.18 22.168C109.884 23.4693 110.236 24.9733 110.236 26.68C110.236 28.408 109.884 29.944 109.18 31.288C108.497 32.6107 107.516 33.6453 106.236 34.392C104.977 35.1173 103.526 35.48 101.884 35.48ZM101.852 31.576C103.004 31.576 103.921 31.1387 104.604 30.264C105.308 29.368 105.66 28.1947 105.66 26.744C105.66 25.2933 105.308 24.1413 104.604 23.288C103.921 22.4133 103.004 21.976 101.852 21.976C100.7 21.976 99.7715 22.4133 99.0675 23.288C98.3848 24.1413 98.0435 25.2933 98.0435 26.744C98.0435 28.1947 98.3848 29.368 99.0675 30.264C99.7715 31.1387 100.7 31.576 101.852 31.576ZM118.092 27.832V35H113.58V11.608H118.092V24.536L123.244 18.52H128.588L121.996 25.912L128.94 34.808L124.044 35.48L118.092 27.832ZM136.333 35.448C134.584 35.448 133.208 34.9147 132.205 33.848C131.203 32.7813 130.701 31.32 130.701 29.464V18.52H135.213V28.728C135.213 29.6027 135.427 30.2853 135.853 30.776C136.28 31.2453 136.856 31.48 137.581 31.48C138.307 31.48 139 31.2453 139.661 30.776C140.344 30.3067 140.909 29.6773 141.357 28.888V18.52H145.869V35H141.357V32.824C140.739 33.656 140.024 34.3067 139.213 34.776C138.424 35.224 137.464 35.448 136.333 35.448Z" fill="white"/>
</svg>
